<svg width="1210" height="878" viewBox="0 0 1210 878" fill="none" xmlns="http://www.w3.org/2000/svg">
<path d="M1114.4 214.549C977.498 28.0951 687.834 -47.8773 402.733 33.0829C252.009 75.8842 106.619 161.869 34.3869 328.667C-94.7351 626.837 175.328 722.515 351.967 753.14C437.38 767.949 517.808 792.733 591.289 826.424C723.487 887.038 957.563 940.917 1134.5 689.486C1262.74 507.249 1205.59 338.745 1114.4 214.549Z" fill="#1E1E1E"/>
<path d="M319.061 250.248C318.681 247.287 317.909 244.387 316.764 241.62C316.619 241.097 316.363 240.609 316.013 240.188C315.664 239.767 315.228 239.421 314.734 239.173C314.073 239.004 313.381 238.996 312.716 239.148L302.352 240.68C301.485 240.717 300.654 241.031 299.987 241.573C298.635 242.956 299.961 245.188 299.917 247.098C299.867 249.247 297.908 250.988 295.786 251.561C293.62 251.985 291.386 251.955 289.233 251.473L274.748 249.255C279.017 247.932 282.818 245.464 285.719 242.134C287.628 239.933 288.649 235.819 285.895 234.772C285.076 234.551 284.223 234.483 283.379 234.571C276.814 234.611 271.656 229.256 265.514 226.995C261.583 225.64 257.314 225.534 253.317 226.69C249.32 227.847 245.801 230.206 243.261 233.432L250.979 233.807C251.705 233.769 252.425 233.957 253.034 234.345C254.724 235.703 252.617 238.305 252.852 240.429C253.158 243.188 256.911 243.782 259.74 244.065C262.57 244.348 266.157 246.597 264.792 249.032C250.562 253.792 236.109 239.646 221.169 241.363C217.388 241.798 213.816 243.242 210.123 244.148C187.568 249.681 164.279 234.796 141.241 237.908C136.119 238.752 131.084 240.04 126.196 241.756C123.06 242.756 119.789 243.836 117.507 246.162C115.226 248.489 114.354 252.471 116.508 254.91C110.56 255.379 104.573 254.815 98.8263 253.244C100.38 254.089 101.671 255.327 102.565 256.827C103.459 258.328 103.923 260.035 103.908 261.771C94.6188 263.235 85.5743 265.912 77.0171 269.729C78.6094 272.321 80.4701 274.747 82.5699 276.968L70.8027 284.321C74.7732 285.303 76.8192 290.591 74.5046 293.888C78.6256 292.107 81.1847 287.485 85.59 286.554C88.4761 285.944 91.4102 287.1 94.1457 288.186C96.8812 289.272 99.8879 290.325 102.723 289.517C105.557 288.709 107.652 285.127 105.855 282.841C117.971 279.411 130.49 277.521 143.102 277.218C144.075 277.1 145.061 277.284 145.921 277.744C147.561 278.858 147.126 281.258 147.035 283.205C146.944 285.153 148.496 287.715 150.281 286.84C148.179 288.613 149.969 291.959 151.98 293.829C153.991 295.7 156.414 298.28 155.178 300.708C154.855 301.341 154.309 301.848 153.998 302.487C153.082 304.374 154.53 306.578 156.239 307.834C157.949 309.091 160.044 309.97 161.23 311.709C162.416 313.447 161.872 316.486 159.746 316.726L153.714 309.231C151.647 311.317 150.228 313.932 149.622 316.773C156.022 321.893 156.971 332.297 151.597 338.438C148.852 341.577 144.951 343.481 141.545 345.927C138.139 348.373 134.986 351.859 134.988 355.985C134.993 363.115 134.386 369.737 137.114 376.351C142.146 388.546 147.957 400.421 154.515 411.905C156.238 414.92 158.464 418.226 161.961 418.75C157.556 408.243 153.592 397.574 150.07 386.742C152.374 386.754 155.037 386.937 156.385 388.76C157.502 390.27 157.258 392.321 157.603 394.152C158.043 395.927 158.778 397.619 159.778 399.161L180.834 435.88C182.579 438.924 184.582 442.192 187.924 443.428C190.061 444.219 192.535 444.074 194.501 445.211C196.043 446.102 197.079 447.681 198.651 448.52C203.094 450.893 209.284 446.363 213.435 449.195C214.622 450.005 215.376 451.289 216.47 452.216C220.303 455.465 226.602 453.304 231.029 455.73C233.882 457.293 235.357 460.413 236.876 463.241C240.681 470.325 246.844 477.269 255.018 477.844C257.586 478.025 260.21 477.554 262.72 478.115C265.229 478.676 267.698 480.817 267.291 483.297C266.594 487.55 268.741 492.211 268.156 496.48C267.092 504.256 255.781 507.657 254.799 515.443C254.583 517.148 254.914 518.908 254.495 520.577C253.982 522.621 252.406 524.284 251.843 526.317C250.777 530.168 253.601 534.007 256.705 536.604C259.809 539.2 263.513 541.441 265.207 545.072C266.997 548.91 266.109 553.381 266.687 557.56C267.949 566.683 276.013 573.456 284.316 577.828C286.846 579.16 289.562 580.45 291.197 582.757C293.332 585.768 293.113 589.733 293.822 593.328C295.558 602.132 303.141 609.395 303.344 618.358C303.488 624.729 299.85 630.503 297.673 636.511C295.633 642.268 294.888 648.386 295.491 654.449C296.094 660.511 298.03 666.376 301.167 671.642C302.785 674.317 304.721 676.839 305.864 679.737C307.904 684.91 307.231 690.785 309.111 696.015C311.597 702.928 318.446 708.646 317.779 715.944C320.884 722.257 327.754 725.367 334.664 727.254L347.049 730.637C349.42 731.285 351.898 731.938 354.314 731.475C356.731 731.012 359.039 729.058 358.98 726.656C352.906 725.31 346.638 723.88 341.635 720.26C336.632 716.64 333.21 710.202 335.119 704.417C336.004 701.735 337.883 698.639 336.104 696.419C335.085 695.147 333.22 694.813 332.07 693.653C330.278 691.844 330.899 688.809 332.193 686.632C333.486 684.455 335.355 682.511 335.879 680.047C336.144 678.668 335.97 677.244 335.382 675.964C334.793 674.685 333.817 673.611 332.586 672.888C334.884 672.045 336.976 670.74 338.724 669.057C340.339 667.263 341.088 664.493 339.822 662.449C343.589 662.92 348.036 663.155 350.513 660.347C352.491 658.104 352.361 654.747 351.584 651.887C350.808 649.026 349.493 646.247 349.457 643.289C358.146 643.703 366.856 643.427 375.5 642.465C374.256 638.356 371.422 634.881 367.597 632.777C371.512 632.137 375.084 627.57 376.326 623.891C377.568 620.212 377.259 616.202 376.5 612.399C376.208 611.42 376.169 610.386 376.387 609.389C376.83 608.019 378.211 607.184 379.489 606.471L398.933 595.611C400.093 595.046 401.145 594.291 402.043 593.378C404.082 591.048 403.786 587.525 402.747 584.634C401.709 581.742 400.044 579.022 399.647 575.982C398.459 566.892 408.439 560.386 411.816 551.835C413.142 548.48 413.416 544.831 413.677 541.244C413.957 537.391 413.984 532.916 410.955 530.428C408.052 528.044 403.51 528.568 400.472 526.35C397.687 524.316 396.731 520.373 393.687 518.729C390.923 517.236 387.453 518.178 384.378 517.473C378.962 516.232 375.562 510.135 370.031 509.563C366.91 509.241 363.375 510.724 360.819 508.947C358.567 507.381 358.481 504.239 358.056 501.573C357.31 497.429 355.28 493.607 352.241 490.623C349.201 487.639 345.297 485.635 341.055 484.882C337.837 484.374 334.334 484.56 331.598 482.83C328.828 481.079 327.562 477.805 325.387 475.382C321.883 471.477 316.357 470.083 311.181 468.888L290.125 464.025C286.387 463.162 281.568 462.701 279.557 465.894C278.961 467.11 278.539 468.399 278.301 469.727C277.546 472.129 276.03 474.234 273.971 475.742C271.912 477.25 269.416 478.082 266.842 478.118C265.081 475.177 262.224 473.014 258.868 472.079C256.733 471.496 254.447 471.428 252.411 470.57C251.302 470.04 250.316 469.295 249.513 468.38C248.71 467.466 248.106 466.401 247.739 465.251C247.372 464.1 247.25 462.889 247.379 461.691C247.509 460.493 247.887 459.334 248.492 458.284C249.709 456.176 250.182 453.736 249.836 451.339C249.491 448.943 248.347 446.724 246.581 445.026C243.004 441.883 237.823 441.117 233.02 441.424C231.766 438.744 233.873 435.725 236.143 433.782C238.412 431.839 241.167 429.93 241.665 427.024C242.448 422.453 236.475 418.972 231.933 420.329C227.392 421.685 224.489 425.983 222.567 430.221C221.465 432.653 220.527 435.214 218.791 437.263C217.055 439.312 214.261 440.777 211.622 440.115C207.886 439.177 206.448 434.842 205.627 431.164C204.524 426.23 203.415 421.226 203.655 416.181C203.894 411.136 205.645 405.958 209.463 402.548C215.684 396.991 225.215 397.551 233.599 398.451C231.621 396.27 232.116 392.6 234.239 390.553C235.359 389.585 236.704 388.898 238.159 388.551C239.613 388.205 241.131 388.21 242.583 388.566C245.109 389.083 247.383 390.414 249.04 392.345C251.419 395.183 252.091 399.012 253.887 402.232C255.684 405.452 259.73 408.203 263.047 406.481C265.912 404.994 266.372 401.121 265.664 398.031C264.956 394.94 263.447 391.934 263.71 388.777C264.211 382.755 270.615 379.138 276.266 376.666C281.916 374.193 288.387 370.866 289.29 364.889C289.322 363.718 289.55 362.56 289.965 361.461C290.593 360.491 291.464 359.694 292.497 359.145C308.992 348.542 325.762 337.809 344.607 332.03C345.587 331.729 345.702 332.065 346.701 331.83C348.099 331.043 347.176 328.862 345.838 327.981C344.499 327.101 342.709 326.425 342.371 324.884C342.123 323.752 342.808 322.641 342.987 321.497C343.427 318.684 339.982 316.081 337.301 317.202C335.791 315.245 338.788 312.977 341.21 312.33C348.482 310.389 355.946 309.21 363.475 308.814C364.344 308.681 365.234 308.83 366.007 309.238C367.27 310.095 367.106 312.055 366.208 313.273C365.31 314.492 363.915 315.256 362.797 316.286C361.575 317.444 360.703 318.907 360.276 320.516C359.848 322.125 359.881 323.817 360.372 325.409C364.299 327.365 368.569 329.379 372.923 328.698C377.276 328.017 381.147 323.251 379.106 319.437C377.206 315.885 371.484 315.076 370.506 311.185C369.36 306.629 375.973 302.588 374.491 298.126C373.842 296.171 371.848 295.018 370.319 293.605C368.513 291.873 367.286 289.649 366.799 287.224C366.313 284.799 366.589 282.288 367.591 280.019C365.097 280.443 362.534 280.278 360.118 279.536C357.702 278.795 355.504 277.499 353.707 275.757C350.39 272.481 347.746 267.316 343.028 267.455C338.699 267.583 334.962 272.507 330.916 270.997C329.921 270.626 328.872 269.871 327.906 270.311C327.59 270.511 327.324 270.779 327.129 271.093C326.934 271.408 326.815 271.762 326.78 272.129C325.745 276.927 327.507 282.397 324.82 286.541C321.896 291.049 315.148 291.665 311.605 295.73C309.682 297.936 308.934 300.912 307.166 303.238C305.399 305.565 301.651 307.04 299.536 305.007C300.58 302.921 300.868 300.551 300.352 298.285C299.837 296.018 298.549 293.989 296.699 292.53C294.734 291.275 292.616 290.266 290.395 289.527C287.912 288.497 285.551 287.209 283.353 285.684C282.251 285.034 281.357 284.097 280.77 282.979C280.306 281.58 280.371 280.065 280.953 278.708C282.031 275.706 283.929 273.048 286.442 271.021C288.956 268.994 291.989 267.676 295.214 267.209C298.034 266.838 301.315 266.975 303.184 264.881C304.173 263.774 304.693 262.098 306.127 261.649C307.044 261.471 307.996 261.587 308.84 261.979L319.358 265.609C320.532 266.128 321.824 266.338 323.106 266.219C323.742 266.137 324.323 265.822 324.731 265.339C325.139 264.857 325.345 264.241 325.308 263.616C324.974 261.91 322.286 261.088 322.533 259.368C322.671 258.811 322.979 258.308 323.416 257.925C327.22 253.986 331.869 250.917 337.031 248.936C342.193 246.956 347.74 246.113 353.274 246.47C354.599 248.6 352.495 251.118 350.744 252.933C348.994 254.747 347.584 257.992 349.696 259.394C350.562 259.826 351.525 260.04 352.497 260.014C355.088 260.36 357.605 261.108 359.953 262.232C363.587 263.781 367.151 265.476 370.646 267.316C370.34 265.066 370.049 262.695 370.926 260.593C371.803 258.49 374.289 256.844 376.457 257.666C378.547 258.459 379.615 261.162 381.843 261.413C384.814 261.747 385.992 257.465 384.755 254.809C383.517 252.152 381.063 249.925 380.863 247.014C380.727 245.049 381.497 242.615 379.89 241.423C379.319 241.065 378.67 240.842 377.994 240.771L337.858 233.504C335.475 233.073 332.03 233.396 331.921 235.759C331.86 237.078 333.065 238.384 332.529 239.596C331.956 240.89 330.081 240.769 328.715 241.225C326.594 241.932 325.528 244.386 325.728 246.563C326.097 248.727 326.953 250.785 328.234 252.588C325.624 251.519 321.67 251.317 319.061 250.248Z" fill="#CA0000"/>
<path d="M287.076 216.948C284.545 216.127 281.817 216.085 279.262 216.828C276.706 217.571 274.446 219.062 272.789 221.101C272.127 221.949 271.57 223.119 272.122 224.039C272.914 225.359 274.936 224.841 276.427 224.372C278.619 223.611 281.003 223.559 283.228 224.223C284.627 224.694 285.878 225.524 287.283 225.978C287.967 226.258 288.716 226.351 289.45 226.248C290.184 226.144 290.875 225.847 291.45 225.39C292.416 224.431 292.479 222.939 292.482 221.594C292.55 221.144 292.514 220.685 292.376 220.251C292.239 219.816 292.004 219.417 291.688 219.083C291.126 218.764 290.494 218.581 289.845 218.548C288.391 218.283 287.077 217.532 286.13 216.423" fill="#CA0000"/>
<path d="M301.557 213.036C300.991 213.006 300.426 213.117 299.916 213.361C299.407 213.605 298.97 213.972 298.649 214.428C298.327 214.884 298.131 215.414 298.079 215.965C298.028 216.516 298.123 217.071 298.354 217.577C300.094 218.042 301.911 218.16 303.698 217.924C304.59 217.791 305.421 217.402 306.086 216.809C306.752 216.215 307.223 215.442 307.439 214.588C305.335 214.958 303.164 214.551 301.351 213.444" fill="#CA0000"/>
<path d="M350.136 206.539C345.399 207.514 340.796 209.032 336.424 211.061C338.483 211.837 340.232 213.237 341.413 215.056C342.595 216.874 343.146 219.015 342.986 221.162C342.8 221.987 342.82 222.843 343.045 223.658C343.547 224.849 345.005 225.298 346.286 225.605C348.589 226.293 350.994 226.596 353.4 226.502C354.604 226.442 355.773 226.09 356.803 225.479C357.832 224.867 358.689 224.015 359.295 222.998C359.645 222.034 360.056 221.091 360.524 220.175C363.604 215.612 372.727 221.148 376.033 216.738C377.198 215.185 377.095 212.844 378.612 211.614C379.397 211.078 380.306 210.741 381.257 210.633C387.895 209.356 394.6 208.435 401.341 207.872C404.535 207.605 408.7 206.492 408.731 203.364C396.705 201.042 384.229 202.661 373.244 207.971C369.286 209.898 364.049 213.956 360.243 211.388C358.818 210.427 358.892 207.843 356.93 206.761C354.925 205.655 352.267 206.1 350.136 206.539Z" fill="#CA0000"/>
<path d="M389.466 213.774L395.111 214.841C394.072 214.794 393.034 214.965 392.068 215.341C391.101 215.717 390.228 216.289 389.506 217.02C388.785 217.752 388.231 218.625 387.882 219.581C387.534 220.538 387.399 221.556 387.485 222.568C392.771 224.299 398.538 222.63 404.109 222.867C409.679 223.104 416.154 226.996 415.196 232.355C414.906 233.976 413.944 235.594 414.44 237.166C414.789 238.268 415.783 239.051 416.343 240.066C417.511 242.181 416.571 244.853 415.09 246.772C413.609 248.691 411.62 250.221 410.319 252.261C407.085 257.335 408.909 263.902 410.823 269.578C411.376 271.723 412.399 273.724 413.823 275.445C416.667 278.404 421.308 278.668 425.465 278.733C428.491 278.78 431.957 278.64 433.873 276.355C436.376 273.372 434.636 268.711 436.285 265.208C437.784 262.027 441.591 260.667 445.04 259.704C451.359 257.939 457.798 256.44 463.773 253.768C471.193 250.451 478.131 245.275 486.281 244.858C488.568 244.741 490.91 245.008 493.114 244.4C495.317 243.792 497.412 241.937 497.248 239.708C497.109 237.804 495.46 236.404 494.172 234.967C492.884 233.53 491.874 231.321 493.062 229.804L514.43 225.942C512.921 221.913 511.749 216.608 515.233 213.992C516.49 213.048 518.171 212.673 519.242 211.531C521.066 209.585 520.155 206.227 518.054 204.567C515.954 202.907 513.111 202.518 510.417 202.296C501.051 201.523 491.63 202.011 482.244 202.5C463.897 203.454 445.551 204.409 427.204 205.364C423.51 205.556 419.247 205.248 415.858 206.472C412.989 207.509 410.947 209.417 407.667 210.083C401.611 211.313 394.949 210.465 389.466 213.774Z" fill="#CA0000"/>
<path d="M490.566 257.473C489.99 257.383 489.402 257.513 488.921 257.834C488.603 258.175 488.414 258.611 488.384 259.07C488.017 261.098 488.448 263.187 489.592 264.918C490.174 265.767 490.979 266.448 491.923 266.892C492.867 267.335 493.915 267.523 494.958 267.438C497.501 267.125 499.378 265.011 501.717 263.982C505.323 262.396 520.627 259.939 510.051 254.344C506.406 252.416 504.047 254.11 501.17 255.372C497.897 257 494.23 257.727 490.566 257.473Z" fill="#CA0000"/>
<path d="M583.337 210.905C582.1 211.396 581.065 212.272 580.393 213.398C580.083 213.969 580.011 214.635 580.19 215.258C580.369 215.88 580.787 216.411 581.357 216.742C581.818 216.906 582.307 216.982 582.798 216.967L587.823 217.121C589.958 217.186 592.624 217.634 593.195 219.642C593.618 221.133 592.662 223.047 593.811 224.114C594.304 224.488 594.897 224.714 595.519 224.767C597.174 225.184 598.903 225.241 600.583 224.934C604.24 223.982 602.322 221.802 603.477 219.864C605.243 216.9 604.935 218.696 608.042 217C610.337 215.748 613.303 213.474 611.394 210.271C608.074 204.701 588.251 208.521 583.337 210.905Z" fill="#CA0000"/>
<path d="M682.526 208.25L679.607 208.626C673.026 209.473 666.407 210.328 660.067 212.247C662.809 213.31 665.686 214.003 668.619 214.308C670.234 214.388 671.838 214.613 673.41 214.98C676.208 215.797 679.026 217.901 681.732 216.829C683.41 216.164 683.959 214.462 685.35 213.561C686.31 212.939 689.949 211.935 690.356 211.306C693.651 206.224 685.053 207.925 682.526 208.25Z" fill="#CA0000"/>
<path d="M695.32 221.209C691.419 223.33 687.799 225.909 684.541 228.889C683.168 230.144 681.765 231.706 681.887 233.538C682.049 235.973 684.705 237.39 687.006 238.344L696.329 242.212C697.463 240.657 696.43 238.507 695.263 236.976C694.096 235.445 692.708 233.673 693.228 231.834C693.82 229.734 696.446 229.022 698.647 228.664C702.234 228.08 711.906 228.141 710.752 222.501C709.392 215.855 698.922 219.251 695.32 221.209Z" fill="#CA0000"/>
<path d="M692.9 597.192C692.009 599.699 691.92 602.654 693.453 604.847C695.173 607.307 698.621 608.228 701.607 607.609C704.58 606.842 707.232 605.184 709.188 602.868C710.977 600.929 712.449 598.732 713.554 596.356C715.096 592.652 716.185 588.784 716.8 584.832L719.717 569.998C720.369 566.683 720.359 556.516 714.108 559.82C712.4 560.722 708.439 567.861 706.647 569.885C703.419 573.531 702.987 577.074 701.284 581.495C699.151 587.033 694.873 591.645 692.9 597.192Z" fill="#CA0000"/>
<path d="M1022.71 673.6C1020.66 672.819 1018.68 671.894 1016.77 670.834C1014.85 675.963 1013.83 681.371 1013.74 686.831L1027.74 679.129C1029.85 677.97 1032.23 676.36 1032.19 674.001C1032.21 673.71 1032.15 673.419 1032.01 673.159C1031.88 672.899 1031.67 672.679 1031.42 672.523C1031.11 672.401 1030.77 672.362 1030.44 672.41C1028.37 672.575 1026.47 673.568 1024.52 674.258C1022.56 674.947 1020.27 675.31 1018.48 674.28" fill="#CA0000"/>
<path d="M1096.48 678.291C1094.94 678.697 1093.44 679.22 1091.99 679.855C1088.78 681.444 1086.59 684.468 1083.7 686.562C1080.93 688.567 1077.61 689.664 1074.34 690.732C1073.38 691.559 1073.81 693.229 1074.86 693.958C1075.98 694.582 1077.26 694.866 1078.55 694.774C1081.94 694.852 1085.52 694.889 1088.49 693.294C1090.17 692.236 1091.74 691.025 1093.18 689.676C1096.66 686.852 1100.83 684.992 1104.97 683.194C1106.47 682.642 1107.86 681.833 1109.07 680.804C1111.67 678.313 1111.86 674.463 1108.12 673.608C1105.1 672.918 1099.36 677.387 1096.48 678.291Z" fill="#CA0000"/>
<path d="M1129.11 657.561C1129.28 655.844 1129.05 654.112 1128.43 652.495C1127.82 650.878 1126.83 649.419 1125.55 648.228C1125.51 651.663 1125.4 655.323 1123.41 658.161C1122 660.183 1119.78 661.547 1118.24 663.473C1116.69 665.399 1116 668.454 1117.81 670.148C1118.97 671.011 1120.38 671.487 1121.83 671.508C1125.44 671.927 1129.62 672.165 1132.15 669.624C1133.54 668.237 1134.21 666.181 1135.9 665.163C1136.53 664.906 1137.09 664.516 1137.54 664.02C1138.24 662.941 1137.14 661.517 1135.89 661.127C1134.65 660.736 1133.28 660.917 1132.03 660.546C1130.78 660.174 1129.63 658.8 1130.27 657.691" fill="#CA0000"/>
<path d="M1071.35 531.518C1069.46 531.965 1067.5 532.075 1065.56 531.843C1062.35 531.262 1059.85 528.895 1057.26 526.954C1051.1 522.363 1043.61 519.797 1035.86 519.623C1028.81 519.483 1021.69 521.336 1014.77 520.026C1015.22 522.481 1017.37 524.326 1019.67 525.423C1021.96 526.521 1024.5 527.076 1026.8 528.151C1030.5 529.89 1033.42 532.871 1035.05 536.545C1035.79 538.24 1036.25 540.083 1037.38 541.563C1039.67 544.588 1044.04 545.258 1047.89 545.016C1052.91 544.701 1058.15 543.3 1062.82 545.132C1066.39 546.533 1068.94 549.588 1071.92 551.964C1074.9 554.341 1079.1 556.108 1082.53 554.401C1078.97 553.272 1075.88 551.063 1073.7 548.098C1071.52 545.132 1070.37 541.565 1070.42 537.916C1073.77 538.222 1083.45 538.12 1082.94 532.549C1082.5 527.828 1074.24 531.013 1071.35 531.518Z" fill="#CA0000"/>
<path d="M1027.35 569.859C1027.95 566.668 1031.22 563.854 1030.21 560.763C1029.51 558.625 1026.97 557.567 1024.67 557.511C1022.37 557.455 1020.11 558.12 1017.81 558.179C1016.32 558.1 1014.82 558.118 1013.32 558.235C1008.76 558.96 1005.94 563.623 1001.64 565.276C999.02 566.282 996.082 566.085 993.362 566.778C987.186 568.353 983.272 574.039 978.95 578.622C971.967 585.994 962.875 591.15 952.854 593.422C949.343 594.21 945.569 594.712 942.776 596.932C939.077 599.872 938.16 604.921 937.331 609.505C935.042 622.167 931.553 634.594 926.91 646.626L941.566 648.473C944.353 648.825 947.24 649.168 949.926 648.367C951.879 647.651 953.728 646.694 955.429 645.517C961.964 641.571 969.274 639.008 976.888 637.994C980.727 637.485 984.752 637.397 988.352 638.794C991.952 640.192 995.038 643.353 995.334 647.123C996.893 646.652 998.553 646.604 1000.14 646.982C1001.72 647.361 1003.17 648.152 1004.33 649.272C1006.62 651.557 1008.12 654.487 1008.62 657.648C1009 659.606 1009.38 661.951 1011.24 662.774C1012.76 663.446 1014.5 662.728 1016.16 662.6C1021.8 662.168 1026.47 668.587 1032.01 667.491C1037.95 666.315 1039.42 657.636 1045.22 655.906C1048.55 654.912 1053.22 656.133 1054.82 653.114C1056.22 650.453 1053.43 647.376 1053.72 644.395C1054.08 640.724 1058.52 639.172 1061.95 637.61C1073.75 632.226 1079.37 616.742 1073.67 605.309C1070.29 598.534 1063.64 593.195 1062.42 585.757C1061.48 580.034 1063.8 573.365 1060.07 568.855C1058.17 566.562 1054.95 565.292 1053.82 562.557C1053.11 560.835 1053.4 558.883 1053.02 557.064C1052.64 555.246 1051.02 553.342 1049.18 553.811C1043.83 555.171 1042.11 571.265 1039.24 575.172C1034.89 581.111 1025.97 577.182 1027.35 569.859Z" fill="#CA0000"/>
<path d="M928.689 537.394C926.865 536.892 924.873 536.397 923.124 537.108C921.374 537.819 920.349 540.323 921.751 541.568C932.731 541.166 943.778 540.768 954.661 542.238C967.201 543.933 979.607 548.103 992.206 546.9C985.014 544.818 977.701 543.151 970.308 541.908L957.979 539.591C954.671 538.91 951.329 538.402 947.967 538.067C940.932 537.49 935.604 539.296 928.689 537.394Z" fill="#CA0000"/>
<path d="M939.735 500.099C938.823 500.023 937.695 499.957 937.222 500.721C936.77 501.451 937.285 502.417 937.041 503.236C936.709 504.355 935.206 504.639 934.023 504.485C932.839 504.331 931.56 503.964 930.51 504.519C929.978 504.873 929.578 505.385 929.369 505.98C929.161 506.575 929.156 507.219 929.355 507.817C929.782 509.004 930.474 510.083 931.38 510.977C932.928 512.886 934.693 514.618 936.64 516.14C940.409 518.863 945.52 520.181 947.891 524.129C948.225 524.894 948.739 525.572 949.392 526.107C950.532 526.814 952.021 526.279 953.25 525.733L957.558 523.82C958.335 523.548 959.028 523.09 959.573 522.487C960.559 521.186 959.958 519.333 959.134 517.929C958.31 516.525 957.255 515.071 957.435 513.463C957.755 510.595 961.536 509.503 963.094 507.051C964.664 504.58 963.649 501.391 963.833 498.489C964.049 495.095 966.242 490.682 962.728 488.141C959.743 485.981 956.883 487.969 954.733 490.345C950.201 495.357 948.053 500.789 939.735 500.099Z" fill="#CA0000"/>
<path d="M965.946 449.418C967.412 452.166 970.474 453.81 972.073 456.487C973.807 459.389 973.603 463.134 975.484 465.947C977.414 468.833 981.304 470.369 982.384 473.65C983.563 477.232 980.87 481.579 983.007 484.711C983.406 485.223 983.909 485.648 984.485 485.96C985.061 486.272 985.697 486.464 986.353 486.524C987.009 486.584 987.671 486.51 988.296 486.307C988.921 486.105 989.496 485.777 989.985 485.346C990.89 484.388 991.375 483.124 991.337 481.822C991.299 480.52 990.742 479.283 989.784 478.377C988.518 477.247 986.698 476.757 985.641 475.437C985.091 474.676 984.724 473.803 984.57 472.884C983.997 470.232 984.093 467.484 984.851 464.877C985.135 464.215 985.208 463.485 985.061 462.782C984.586 461.43 982.71 461.331 981.394 460.702C978.406 459.274 978.485 455.156 979.012 451.95C978.661 454.084 970.873 450.442 970.058 449.232C968.441 446.827 969.33 442.194 969.012 439.539C965.51 441.18 964.153 446.057 965.946 449.418Z" fill="#CA0000"/>
<path d="M887.369 491.562C885.933 489.989 883.769 488.342 881.839 489.287C880.366 490.008 879.959 491.994 880.533 493.5C881.234 494.964 882.313 496.224 883.666 497.155C887.68 500.395 892.004 503.32 895.504 507.085C901.769 513.822 905.08 522.905 911.894 529.113C913.264 530.552 915.079 531.514 917.061 531.851C919.049 532.035 921.283 530.796 921.515 528.861C921.705 527.267 920.568 525.839 919.457 524.656C916.81 521.838 913.912 519.245 911.414 516.301C910.26 515.17 909.535 513.689 909.361 512.102C909.351 510.52 910.832 508.865 912.403 509.259C910.493 508.78 909.079 505.671 906.275 505.082C903.931 504.591 903.362 506.006 900.573 504.835C895.255 502.6 891.09 495.639 887.369 491.562Z" fill="#CA0000"/>
<path d="M1012.63 338.748C1011.11 338.303 1009.61 337.777 1008.14 337.174C1004.19 336.011 998.958 338.837 999.479 342.831C999.825 345.484 1002.35 347.276 1003.75 349.579C1005.81 352.994 1005.25 357.321 1004.16 361.141C1003.89 362.323 1003.38 363.441 1002.66 364.428C1001.65 365.469 1000.45 366.311 999.116 366.908C993.776 369.82 989.065 373.714 985.243 378.374C984.828 378.805 984.538 379.336 984.404 379.912C984.214 381.26 985.601 382.244 986.384 383.37C988.125 385.869 986.859 389.228 987.027 392.246C987 392.672 987.085 393.099 987.274 393.484C987.463 393.87 987.75 394.202 988.108 394.449C989.158 394.971 990.405 394.088 990.976 393.082C992.871 389.742 991.455 384.375 995.004 382.769C995.676 382.465 996.489 382.338 996.938 381.763C997.649 380.852 996.966 379.5 997.327 378.41C997.87 376.774 1000.16 376.704 1001.93 376.779C1004.96 376.907 1007.99 376.518 1010.89 375.628C1012.03 375.366 1013.06 374.785 1013.86 373.956C1014.92 372.666 1014.83 370.83 1014.62 369.188C1013.57 361.003 1010.92 353.089 1006.83 345.874C1009.94 346.267 1013.33 346.608 1016.02 345.028C1017.53 344.143 1019.34 341.492 1018.59 339.686C1017.42 336.828 1015.28 339.229 1012.63 338.748Z" fill="#CA0000"/>
<path d="M613.145 383.179C613.515 385.131 613.879 387.186 613.22 389.064C612.562 390.942 610.498 392.509 608.553 391.931C607.042 391.482 606.172 389.998 605.101 388.866C599.144 382.573 585.678 386.192 582.004 378.412C580.504 375.236 581.532 371.436 580.511 368.085C579.866 366.148 578.581 364.475 576.856 363.328C575.131 362.181 573.065 361.626 570.982 361.749C569.082 362.014 567.232 362.55 565.491 363.34C553.832 367.876 541.594 370.844 529.114 372.162C526.743 372.299 524.397 372.712 522.125 373.392C516.999 375.197 513.492 379.827 510.994 384.552C508.496 389.278 506.649 394.396 503.303 398.593C499.786 403.004 494.863 406.089 490.27 409.427C488.5 410.536 487.026 412.039 485.969 413.812C484.971 415.804 485.024 418.122 485.098 420.337L485.997 447.243C486.113 450.704 486.259 454.289 487.842 457.388C489.818 461.258 493.73 463.797 496.442 467.217C499.209 470.732 500.647 475.071 500.512 479.501C500.452 481.282 500.267 483.389 501.687 484.51C502.551 485.058 503.563 485.343 504.593 485.33L541.888 488.362C548.449 488.896 555.719 489.768 559.995 494.652C562.014 496.957 563.633 500.269 566.729 500.521C568.057 500.629 569.35 500.098 570.679 499.998C574.031 499.744 576.972 502.23 578.826 504.967C581.633 509.138 582.902 514.117 582.426 519.085C582.117 522.203 581.122 525.234 580.904 528.36C580.073 540.254 590.393 550.603 590.576 562.523C590.683 569.534 587.263 576.08 583.928 582.292C589.284 590.234 584.874 600.792 586.997 610.071C589.012 618.873 596.521 625.773 598.382 634.608C599.234 638.653 599.276 643.628 602.927 645.716C604.53 646.481 606.307 646.831 608.087 646.732C618.828 646.872 629.449 644.528 639.083 639.894C643.604 637.712 648.291 634.453 649.087 629.593C649.729 625.674 647.698 621.286 649.777 617.875C652.226 613.854 658.486 614.182 662.086 611.093C667.926 606.082 663.392 596.502 665.766 589.275C667.899 582.779 675.217 579.337 678.85 573.509C680.281 571.003 681.308 568.297 681.897 565.487C683.568 558.77 684.611 551.919 685.015 545.018C685.118 540.825 685.441 536.64 685.983 532.479C689.925 508.793 713.952 492.963 721.778 470.215C722.526 468.042 722.88 465.148 720.9 463.915C719.725 463.366 718.393 463.228 717.126 463.524L699.929 465.614C697.793 465.874 695.529 466.116 693.569 465.248C691.609 464.379 690.207 461.956 691.25 460.119C694.177 454.962 688.18 448.431 685.519 443.137C678.352 428.884 669.813 415.328 660.016 402.651C659.389 401.999 658.996 401.165 658.899 400.276L663.778 400.441C662.139 394.671 659.43 388.356 653.691 386.238C650.456 385.044 646.872 385.45 643.42 385.629C633.53 386.142 622.93 384.67 613.145 383.179Z" fill="#CA0000"/>
<path d="M643.619 253.25C646.203 255.936 649.099 258.783 652.842 259.255C659.454 260.091 664.218 253.425 667.254 247.633C667.364 249.111 668.06 250.489 669.195 251.473C670.33 252.458 671.813 252.971 673.33 252.905C674.963 252.64 676.522 252.047 677.909 251.166C691.022 244.198 705.703 240.518 720.634 240.455C720.492 239.351 720.775 238.235 721.426 237.322C722.078 236.41 723.053 235.765 724.164 235.512C727.2 234.929 729.931 237.494 731.392 240.157C732.852 242.819 733.761 245.904 736.085 247.899C738.409 249.893 742.913 249.813 743.837 246.931C744.723 244.164 741.771 241.799 739.317 240.163C736.864 238.527 734.28 235.503 735.937 233.096C748.487 230.405 761.114 227.703 773.952 227.183C776.137 227.261 778.316 226.898 780.351 226.117C782.31 225.182 783.869 223.057 783.346 220.991C780.543 221.63 777.609 221.439 774.918 220.444C772.227 219.45 769.901 217.695 768.235 215.405C786.05 213.997 804.997 212.801 820.771 221.003C822.66 224.973 813 228.261 815.578 231.844C816.401 232.986 818.051 233.122 819.482 233.15C830.451 233.365 841.484 233.576 852.333 231.976C856.297 231.391 860.302 230.563 864.281 231.047C870.908 231.855 876.57 236.178 883.089 237.595C885.743 238.171 888.718 238.195 890.958 236.692C893.197 235.189 894.164 231.76 892.333 229.8C898.482 223.937 908.669 225.407 916.765 228.23C924.861 231.052 932.528 235.597 941.099 236.236C947.246 236.694 953.481 235.089 959.554 236.124C963.371 236.774 966.921 238.436 970.65 239.459C977.703 241.395 985.168 240.999 992.494 241.102C1011.19 241.375 1029.67 244.987 1047.03 251.758C1049.29 252.479 1051.36 253.676 1053.09 255.263C1054.7 256.954 1055.52 259.579 1054.43 261.631L1036.49 259.046C1038.18 262.297 1042.55 262.856 1046.1 263.982C1049.65 265.108 1053.33 268.941 1051.19 271.927C1047.34 270.726 1043.85 274.476 1041.9 277.928C1039.95 281.381 1037.57 285.516 1033.54 285.72C1029.93 285.903 1025.56 282.896 1023.2 285.572C1026.45 289.581 1029.23 293.931 1031.49 298.54C1033.81 303.273 1035.46 309.234 1032.31 313.484C1031.81 314.243 1031.06 314.809 1030.18 315.086C1027.61 315.717 1025.95 312.649 1024.11 310.789C1021.79 308.444 1018.29 307.776 1015.15 306.674C1012 305.571 1008.7 303.406 1008.46 300.158C1008.31 298.137 1009.4 296.26 1010.21 294.393C1011.57 291.247 1012.17 287.837 1011.95 284.429C1011.78 281.687 1011 278.834 1008.98 276.916C1006.97 274.998 1003.49 274.385 1001.32 276.136C1000.31 276.953 999.493 278.262 998.181 278.309C995.861 278.392 994.086 274.444 992.219 275.788C992.435 277.223 992.128 278.687 991.351 279.924C985.776 284.641 977.225 282.63 970.045 284.289C966.63 285.237 963.36 286.625 960.321 288.416C959.184 288.888 958.216 289.678 957.54 290.687C956.641 292.384 957.626 294.562 959.204 295.694C960.877 296.699 962.758 297.328 964.711 297.537C973.46 299.167 982.335 301.683 989.237 307.178C996.138 312.673 1000.66 321.746 998.457 330.167L981.222 314.052C981.868 320.809 982.23 327.584 982.309 334.377C982.419 335.704 982.23 337.038 981.756 338.286C980.522 340.935 977.186 341.823 974.264 342.404C973.451 342.554 972.679 342.869 972 343.33C971.321 343.791 970.75 344.387 970.324 345.079C969.897 345.771 969.626 346.543 969.527 347.344C969.429 348.146 969.505 348.958 969.751 349.729C970.784 353.032 973.369 355.61 975.736 358.179C978.102 360.747 980.43 363.666 980.736 367.107C981.041 370.548 978.375 374.422 974.845 374.178C972.168 373.992 970.185 371.651 969.047 369.28C967.909 366.909 967.233 364.269 965.521 362.253C960.337 356.152 948.67 358.746 944.028 352.243C942.841 353.554 942.016 355.139 941.633 356.848C941.25 358.557 941.321 360.334 941.839 362.008C944.005 360.69 946.965 361.922 948.588 363.845C950.212 365.768 950.975 368.232 952.249 370.391C953.967 373.304 956.706 375.889 956.941 379.243C956.876 380.511 956.896 381.781 957.001 383.047C957.426 385.079 959.184 386.541 960.401 388.241C963.235 392.197 963.087 397.625 961.25 402.106C959.414 406.587 956.12 410.329 952.858 413.957C947.161 420.293 941.347 426.592 934.596 431.851C932.669 433.352 930.614 434.827 929.412 436.927C928.211 439.027 928.145 441.977 929.984 443.579C928.667 443.641 926.302 444.27 924.984 444.333C924.529 439.174 924.435 433.991 924.706 428.82C919.509 426.376 913.9 432.893 914.563 438.484C915.226 444.076 919.364 448.568 922.307 453.409C924.46 456.95 926.057 461.076 925.331 465.131C924.605 469.186 920.889 472.922 916.687 472.558C910.003 471.979 907.221 462.612 900.603 461.53C900.019 461.396 899.406 461.454 898.86 461.697C897.877 462.221 897.704 463.504 897.648 464.596C897.369 469.957 897.126 475.531 899.264 480.478C902.392 487.714 910.489 493.799 908.777 501.472C899.623 497.304 894.875 487.273 892.726 477.642C890.578 468.011 890.232 457.902 886.369 448.795C883.42 452.472 877.238 449.419 874.554 445.554C872.01 441.889 870.446 437.651 867.978 433.937C865.51 430.223 861.725 426.895 857.194 426.685C852.443 426.464 848.317 429.639 844.689 432.64C841.706 435.107 838.643 437.672 836.896 441.087C834.354 446.055 835.009 451.918 834.879 457.47C834.738 463.472 833.425 469.803 829.226 474.191C825.027 478.579 817.286 480.098 812.668 476.131C810.256 474.06 809.092 470.97 808.055 468.003C803.057 453.703 798.898 439.136 795.599 424.374C794.817 427.742 791.779 432.078 788.887 430.09C788.238 429.556 787.712 428.893 787.345 428.146C781.957 419.206 771.962 413.834 761.86 410.606C751.758 407.379 741.127 405.865 731.138 402.32C725.54 400.333 720.194 397.725 715.206 394.548C713.93 396.371 713.184 398.496 713.046 400.7C712.908 402.903 713.383 405.101 714.421 407.062C716.633 410.896 721.646 413.119 725.943 411.787C728.163 411.098 730.039 409.597 732.242 408.858C734.445 408.119 737.4 408.488 738.36 410.559C739.279 412.542 737.883 414.937 738.571 417.007C739.618 420.159 744.488 420.409 746.187 423.279C747.451 425.414 746.405 428.245 744.593 429.964C742.781 431.683 740.366 432.623 738.156 433.819C730.984 437.696 725.879 444.326 719.609 449.481C713.339 454.636 704.497 458.394 697.039 455.07C698.831 446.283 688.109 439.814 686.147 431.06C685.502 428.179 685.843 425.12 684.919 422.312C683.582 418.247 679.891 415.447 676.865 412.363C673.193 408.582 670.336 404.122 668.46 399.246C666.584 394.37 665.728 389.176 665.943 383.972C666.112 380.356 666.798 376.682 665.958 373.156C665.119 369.629 662.133 366.213 658.427 366.368C649.961 366.72 639.296 367.319 634.865 360.272C633.283 357.756 632.599 354.075 634.893 352.153C636.512 350.797 638.898 350.928 641.021 351.135L660.092 352.993C664.552 353.428 669.374 353.788 673.205 351.518C677.036 349.248 678.704 343.21 675.163 340.528C672.576 338.568 667.936 338.667 667.187 335.556C666.564 332.965 669.507 330.03 667.923 327.863C666.787 326.309 664.228 326.736 662.676 327.897C661.124 329.059 659.997 330.759 658.261 331.637C655.215 333.179 651.581 331.702 648.308 330.698C645.035 329.694 640.645 329.602 639.053 332.567C637.272 335.884 640.617 340.237 638.849 343.56C636.512 347.954 628.624 345.439 625.345 349.216C621.583 353.551 627.885 360.031 626.61 365.573C624.992 366.352 623.194 366.709 621.393 366.607C619.591 366.506 617.848 365.95 616.332 364.995C614.841 364.002 613.654 362.634 612.896 361.036C612.139 359.437 611.839 357.668 612.03 355.917C612.347 353.424 613.683 350.88 612.794 348.522C612.075 346.615 610.116 345.478 608.295 344.493L589.774 334.472C588.049 337.584 590.219 341.449 592.936 343.793C595.654 346.136 599.059 347.903 600.842 350.985C601.97 353.12 602.219 355.594 601.541 357.902C600.862 360.211 599.305 362.179 597.189 363.406C596.924 363.584 596.622 363.703 596.305 363.757C595.988 363.811 595.663 363.796 595.352 363.716C595.056 363.546 594.799 363.319 594.594 363.051C594.39 362.782 594.243 362.476 594.162 362.15C590.904 353.98 586.005 345.921 578.162 341.644C570.318 337.367 559.037 338.228 553.879 345.406C552.654 347.111 551.83 349.055 550.763 350.858C545.09 360.438 532.952 364.96 521.618 364.647C520.509 364.705 519.407 364.451 518.442 363.914C516.612 362.677 516.698 360.057 516.982 357.903L518.185 348.759C518.426 346.923 518.775 344.894 520.267 343.75C522.369 342.137 525.396 343.161 528.07 343.127C530.096 343.038 532.045 342.342 533.652 341.136C535.26 339.929 536.448 338.269 537.056 336.381C537.599 334.475 537.598 332.46 537.054 330.553C536.51 328.647 535.443 326.921 533.969 325.563C532.745 324.438 531.102 323.024 531.751 321.511C532.01 321.093 532.36 320.735 532.776 320.462C533.192 320.19 533.664 320.01 534.159 319.934C538.964 318.58 544.04 318.231 548.765 316.632C553.491 315.033 558.076 311.754 559.201 306.999C559.546 305.541 559.705 303.776 561.048 303.055C561.722 302.778 562.445 302.635 563.176 302.634C565.737 302.282 568.07 301.008 569.717 299.061C571.363 297.115 572.203 294.637 572.07 292.117C574.336 290.577 577.506 291.717 579.693 293.361C581.881 295.006 583.811 297.178 586.474 297.889C591.438 299.215 596.243 294.932 601.389 294.919C603.553 294.914 605.793 295.664 607.83 294.951C609.895 294.228 611.13 292.225 612.716 290.747C614.303 289.268 617.083 288.368 618.544 289.966L617.311 280.962C619.819 281.584 622.434 281.675 624.98 281.23C627.527 280.784 629.946 279.812 632.076 278.379L615.986 273.048C615.426 272.911 614.909 272.64 614.482 272.261C613.313 271.029 614.478 269.115 615.432 267.718C617.714 264.377 618.104 258.87 614.362 257.199C611.808 256.059 608.873 257.419 606.418 258.75L594.659 265.126C594.283 267.304 597.012 268.543 598.702 270.014C599.725 270.903 600.448 272.074 600.776 273.372C601.105 274.67 601.023 276.034 600.542 277.286C600.062 278.537 599.204 279.618 598.082 280.385C596.961 281.153 595.627 281.571 594.257 281.585C595.03 282.568 595.565 283.708 595.825 284.92C596.085 286.132 596.062 287.385 595.758 288.588L587.852 289.131C586.965 289.304 586.043 289.127 585.289 288.639C584.444 287.905 584.561 286.621 584.366 285.534C583.897 282.911 581.268 281.068 578.582 280.593C575.896 280.118 573.147 280.718 570.487 281.311C569.357 281.706 568.116 281.676 567.007 281.227C566.372 280.823 565.889 280.227 565.633 279.53C564.471 276.769 565.566 273.528 567.442 271.171C569.319 268.814 571.885 267.093 574.191 265.132C579.704 260.426 583.759 254.308 585.897 247.471C590.252 245.698 594.761 243.288 599.115 241.515C605.829 238.21 613.356 236.798 620.847 237.439L635.585 237.735C639.949 237.822 644.43 237.933 648.462 239.562C652.495 241.191 656.035 244.707 656.308 248.957C656.391 249.438 656.348 249.932 656.182 250.393C656.016 250.853 655.733 251.265 655.359 251.589C654.789 251.892 654.143 252.033 653.495 251.996C649.425 252.13 647.689 253.117 643.619 253.25Z" fill="#CA0000"/>
<path d="M526.081 298.151C526.657 297.62 527.072 296.944 527.281 296.198C527.49 295.451 527.483 294.663 527.263 293.92C525.862 293.391 524.338 293.253 522.862 293.523C521.386 293.792 520.016 294.459 518.907 295.447C518.033 296.308 517.279 297.277 516.665 298.331C514.724 301.411 513.006 305.091 514.123 308.539C514.214 308.915 514.381 309.269 514.614 309.581C514.848 309.894 515.142 310.157 515.481 310.357C515.984 310.554 516.526 310.638 517.067 310.601C519.201 310.602 521.332 310.477 523.45 310.227C524.751 310.074 526.262 309.718 526.766 308.538C527.429 306.987 525.833 305.228 526.301 303.611C526.609 302.888 527.075 302.239 527.666 301.71C527.959 301.444 528.185 301.114 528.325 300.748C528.465 300.381 528.515 299.988 528.472 299.599C528.285 298.84 527.094 298.407 526.665 299.066" fill="#CA0000"/>
<path d="M537.164 284.171C535.269 283.744 533.316 283.622 531.381 283.809C530.953 283.796 530.528 283.889 530.148 284.08C529.779 284.345 529.511 284.722 529.387 285.152C528.976 286.431 529.075 287.815 529.662 289.026C530.25 290.238 531.284 291.189 532.558 291.69C533.253 291.847 533.918 292.109 534.53 292.467C536.164 293.708 535.118 296.237 535.424 298.235C535.769 300.479 537.991 302.365 537.58 304.598C537.256 306.357 535.328 307.747 535.636 309.509C535.958 311.354 538.356 311.912 540.268 312.063C541.376 312.254 542.517 312.128 543.554 311.7C544.593 311.009 545.333 309.967 545.63 308.775C546.417 306.502 546.749 304.103 546.61 301.708C546.603 300.619 546.324 299.547 545.798 298.587C545.223 297.826 544.585 297.112 543.892 296.451C540.234 292.287 544.101 286.09 537.164 284.171Z" fill="#CA0000"/>
<path opacity="0.8" d="M1018.51 610.648C1018.51 610.648 738.106 453.06 617.248 482.667C617.248 482.667 361.165 509.183 331.406 568.29C331.406 568.29 250.374 319.991 220.712 311.675" stroke="white" stroke-width="2" stroke-miterlimit="10"/>
<path opacity="0.8" d="M331.406 568.29C378.638 445.922 802.747 310.863 802.747 310.863C742.53 325.667 617.248 482.667 617.248 482.667C617.248 482.667 352.998 294.494 220.712 311.675C220.712 311.675 803.141 331.132 1018.51 610.648" stroke="white" stroke-width="2" stroke-miterlimit="10"/>
<path d="M220.694 323.671C227.484 323.681 232.996 318.318 233.005 311.693C233.015 305.068 227.519 299.69 220.729 299.68C213.94 299.67 208.428 305.033 208.418 311.658C208.409 318.283 213.905 323.661 220.694 323.671Z" fill="white"/>
<path d="M331.389 580.285C338.178 580.295 343.69 574.933 343.699 568.308C343.709 561.683 338.213 556.304 331.423 556.294C324.634 556.285 319.122 561.647 319.113 568.272C319.103 574.897 324.599 580.275 331.389 580.285Z" fill="white"/>
<path d="M802.73 322.859C809.519 322.868 815.031 317.506 815.04 310.881C815.05 304.256 809.554 298.877 802.764 298.868C795.975 298.858 790.463 304.22 790.454 310.845C790.444 317.47 795.94 322.849 802.73 322.859Z" fill="white"/>
<path d="M1018.49 622.643C1025.28 622.653 1030.79 617.29 1030.8 610.665C1030.81 604.04 1025.32 598.662 1018.53 598.652C1011.74 598.642 1006.23 604.005 1006.22 610.63C1006.21 617.255 1011.7 622.633 1018.49 622.643Z" fill="#FBFBFB"/>
<path d="M617.231 494.663C624.02 494.672 629.532 489.31 629.542 482.685C629.551 476.06 624.055 470.682 617.265 470.672C610.476 470.662 604.964 476.025 604.955 482.649C604.945 489.274 610.441 494.653 617.231 494.663Z" fill="white"/>
</svg>
